# xmcd
#
# Track frame offsets:
#	150
#	11230
#	22184
#	32717
#	45294
#	55349
#	67381
#	79482
#	87172
#	98612
#	108959
#	122196
#	133560
#	143870
#	156511
#	164268
#	177554
#	189225
#	201390
#	213941
#
# Disc length: 3027 seconds
#
# Revision: 1
# Processed by: cddbd v1.5.2PL0 Copyright (c) Steve Scherf et al.
# Submitted via: audiograbber 1.83.01
#
DISCID=240bd114
DTITLE=Various Artist - Let The Good Times Roll CD1
DYEAR=2016
DGENRE=Blues
TTITLE0=Ray Charles - Let The Good Times Roll
TTITLE1=Clarence Henry - Come On And Dance
TTITLE2=Thurston Harris - Over And Over
TTITLE3=Big Joe Turner - Flip, Flop and Fly
TTITLE4=Jimmy Witherspoon - Have A Ball
TTITLE5=Barrett Strong - Money (That's What I Want)
TTITLE6=Larry Williams - Bony Moronie
TTITLE7=Bobby Freeman - Big Fat Woman
TTITLE8=Sonny Jackson - My Babe
TTITLE9=Ruth Brown - Jim Dandy
TTITLE10=The Romans - She Don't Wanna Dance
TTITLE11=Bo Diddley - Diddey Wah Diddey
TTITLE12=Ike and Tina Turner - The Groove (Instr.)
TTITLE13=Eskew Reeder - Green Door
TTITLE14=Baby Washington - Knock Yourself Out
TTITLE15=Richard Lewis - Hey, Little Girl
TTITLE16=Earl 'Connelly' King - I Get So Happy
TTITLE17=Ray Charles - Mess Around
TTITLE18=Jr. Walker and The All Stars - Brain Washer (Instr.)
TTITLE19=Slim Harpo - I'm A King Bee
EXTD=
EXTT0=
EXTT1=
EXTT2=
EXTT3=
EXTT4=
EXTT5=
EXTT6=
EXTT7=
EXTT8=
EXTT9=
EXTT10=
EXTT11=
EXTT12=
EXTT13=
EXTT14=
EXTT15=
EXTT16=
EXTT17=
EXTT18=
EXTT19=
PLAYORDER=
